<svg xmlns="http://www.w3.org/2000/svg" viewBox="0 0 480 260" fill="none">
  <defs>
    <linearGradient id="bg" x1="0" y1="0" x2="1" y2="1">
      <stop offset="0%" stop-color="#f0f9ff"/>
      <stop offset="100%" stop-color="#eef2ff"/>
    </linearGradient>
    <linearGradient id="bar" x1="0" y1="1" x2="0" y2="0">
      <stop offset="0%" stop-color="#38bdf8"/>
      <stop offset="100%" stop-color="#5872ff"/>
    </linearGradient>
  </defs>
  <rect width="480" height="260" rx="20" fill="url(#bg)"/>
  <rect x="52" y="48" width="220" height="164" rx="16" fill="#fff" stroke="#bae6fd" stroke-width="2"/>
  <rect x="76" y="160" width="28" height="32" rx="6" fill="url(#bar)" opacity="0.55"/>
  <rect x="116" y="132" width="28" height="60" rx="6" fill="url(#bar)" opacity="0.7"/>
  <rect x="156" y="100" width="28" height="92" rx="6" fill="url(#bar)" opacity="0.85"/>
  <rect x="196" y="76" width="28" height="116" rx="6" fill="url(#bar)"/>
  <rect x="300" y="56" width="128" height="40" rx="12" fill="#0f172a"/>
  <rect x="312" y="68" width="64" height="8" rx="4" fill="#38bdf8"/>
  <rect x="312" y="82" width="40" height="6" rx="3" fill="#64748b"/>
  <rect x="300" y="110" width="128" height="40" rx="12" fill="#fff" stroke="#c7d2fe" stroke-width="2"/>
  <rect x="312" y="122" width="64" height="8" rx="4" fill="#5872ff" opacity="0.55"/>
  <rect x="312" y="136" width="40" height="6" rx="3" fill="#94a3b8"/>
  <rect x="300" y="164" width="128" height="40" rx="12" fill="#fff" stroke="#c7d2fe" stroke-width="2"/>
  <rect x="312" y="176" width="64" height="8" rx="4" fill="#22c55e" opacity="0.55"/>
  <rect x="312" y="190" width="40" height="6" rx="3" fill="#94a3b8"/>
</svg>
